<svg width="32" height="37" viewBox="0 0 32 37" fill="none" xmlns="http://www.w3.org/2000/svg">
<path d="M13.2165 6.03261V0H15.6195V6.03261H13.2165ZM5.72716 8.16413L1.2816 3.65978L2.9637 1.93043L7.44931 6.43478L5.72716 8.16413ZM1.2015 37C0.861076 37 0.57572 36.8844 0.345432 36.6533C0.115144 36.4219 0 36.1353 0 35.7935V22.763L3.36421 12.9238C3.52441 12.4319 3.81143 12.0317 4.22528 11.7234C4.63913 11.415 5.11306 11.2609 5.64706 11.2609H10.2128V8.24457H16.3404C15.7263 9.0221 15.2257 9.86667 14.8385 10.7783C14.4514 11.6899 14.2044 12.6551 14.0976 13.6739H5.52691L3.1239 20.7522H16.0601C16.4072 21.208 16.7943 21.6437 17.2215 22.0592C17.6487 22.4748 18.1026 22.8435 18.5832 23.1652H2.403V31.2087H26.433V24.6533C26.8602 24.546 27.273 24.4234 27.6712 24.2856C28.0694 24.1477 28.4577 23.9753 28.836 23.7685V35.7935C28.836 36.1353 28.7209 36.4219 28.4906 36.6533C28.2603 36.8844 27.975 37 27.6345 37H26.7935C26.4531 37 26.1677 36.8844 25.9374 36.6533C25.7071 36.4219 25.592 36.1353 25.592 35.7935V33.6217H3.20401V35.7935C3.20401 36.1353 3.08886 36.4219 2.85857 36.6533C2.62829 36.8844 2.34293 37 2.0025 37H1.2015ZM5.20651 28.3935H10.0125C10.3596 28.3935 10.6466 28.2772 10.8736 28.0446C11.1005 27.812 11.214 27.5238 11.214 27.1799C11.214 26.8361 11.0989 26.5502 10.8686 26.3223C10.6383 26.0944 10.3529 25.9804 10.0125 25.9804H5.20651V28.3935ZM23.6295 28.3935V25.9804H18.8235C18.4764 25.9804 18.1894 26.0967 17.9625 26.3293C17.7355 26.5619 17.622 26.8502 17.622 27.194C17.622 27.5379 17.7372 27.8237 17.9675 28.0516C18.1977 28.2795 18.4831 28.3935 18.8235 28.3935H23.6295ZM23.1489 18.0978L28.796 12.387L27.6746 11.2609L23.1489 15.8457L20.786 13.4326L19.6646 14.5989L23.1489 18.0978ZM24.2303 6.87717C26.3799 6.87717 28.2123 7.63789 29.7274 9.15931C31.2425 10.6807 32 12.5207 32 14.6793C32 16.8379 31.2425 18.678 29.7274 20.1994C28.2123 21.7208 26.3799 22.4815 24.2303 22.4815C22.0807 22.4815 20.2483 21.7208 18.7332 20.1994C17.2181 18.678 16.4606 16.8379 16.4606 14.6793C16.4606 12.5207 17.2181 10.6807 18.7332 9.15931C20.2483 7.63789 22.0807 6.87717 24.2303 6.87717Z" fill="#CA0200"/>
</svg>
