<svg width="29" height="23" viewBox="0 0 29 23" fill="none" xmlns="http://www.w3.org/2000/svg">
<path d="M2.175 23C1.54667 23 1.02708 22.7964 0.61625 22.3891C0.205417 21.9818 0 21.4667 0 20.8438V15.3453C0.894167 15.1536 1.63729 14.7044 2.22937 13.9977C2.82146 13.2909 3.1175 12.4583 3.1175 11.5C3.1175 10.5417 2.82146 9.70312 2.22937 8.98438C1.63729 8.26562 0.894167 7.8224 0 7.65469V2.15625C0 1.53333 0.205417 1.01823 0.61625 0.610937C1.02708 0.203646 1.54667 0 2.175 0H26.825C27.4533 0 27.9729 0.203646 28.3837 0.610937C28.7946 1.01823 29 1.53333 29 2.15625V7.65469C28.1058 7.8224 27.3627 8.26562 26.7706 8.98438C26.1785 9.70312 25.8825 10.5417 25.8825 11.5C25.8825 12.4583 26.1785 13.2909 26.7706 13.9977C27.3627 14.7044 28.1058 15.1536 29 15.3453V20.8438C29 21.4667 28.7946 21.9818 28.3837 22.3891C27.9729 22.7964 27.4533 23 26.825 23H2.175ZM2.175 20.8438H26.825V16.9266C25.9067 16.3036 25.1575 15.525 24.5775 14.5906C23.9975 13.6562 23.7075 12.626 23.7075 11.5C23.7075 10.374 23.9975 9.34375 24.5775 8.40938C25.1575 7.475 25.9067 6.69635 26.825 6.07344V2.15625H2.175V6.07344C3.1175 6.69635 3.87271 7.475 4.44062 8.40938C5.00854 9.34375 5.2925 10.374 5.2925 11.5C5.2925 12.626 5.00854 13.6562 4.44062 14.5906C3.87271 15.525 3.1175 16.3036 2.175 16.9266V20.8438ZM14.5 18.5797C14.79 18.5797 15.0437 18.4719 15.2612 18.2563C15.4787 18.0406 15.5875 17.7891 15.5875 17.5016C15.5875 17.2141 15.4787 16.9625 15.2612 16.7469C15.0437 16.5312 14.79 16.4234 14.5 16.4234C14.21 16.4234 13.9562 16.5312 13.7387 16.7469C13.5212 16.9625 13.4125 17.2141 13.4125 17.5016C13.4125 17.7891 13.5212 18.0406 13.7387 18.2563C13.9562 18.4719 14.21 18.5797 14.5 18.5797ZM14.5 12.5781C14.79 12.5781 15.0437 12.4703 15.2612 12.2547C15.4787 12.0391 15.5875 11.7875 15.5875 11.5C15.5875 11.2125 15.4787 10.9609 15.2612 10.7453C15.0437 10.5297 14.79 10.4219 14.5 10.4219C14.21 10.4219 13.9562 10.5297 13.7387 10.7453C13.5212 10.9609 13.4125 11.2125 13.4125 11.5C13.4125 11.7875 13.5212 12.0391 13.7387 12.2547C13.9562 12.4703 14.21 12.5781 14.5 12.5781ZM14.5 6.57656C14.79 6.57656 15.0437 6.46875 15.2612 6.25312C15.4787 6.0375 15.5875 5.78594 15.5875 5.49844C15.5875 5.21094 15.4787 4.95937 15.2612 4.74375C15.0437 4.52812 14.79 4.42031 14.5 4.42031C14.21 4.42031 13.9562 4.52812 13.7387 4.74375C13.5212 4.95937 13.4125 5.21094 13.4125 5.49844C13.4125 5.78594 13.5212 6.0375 13.7387 6.25312C13.9562 6.46875 14.21 6.57656 14.5 6.57656Z" fill="#CA0200"/>
</svg>
