<svg width="27" height="41" viewBox="0 0 27 41" fill="none" xmlns="http://www.w3.org/2000/svg">
<path d="M13.0193 41C13.3017 41 13.5312 40.7708 13.5312 40.4881V38.6182H22.6489C24.518 38.6182 26.0388 37.0971 26.0388 35.2283V6.40137C26.0388 4.53224 24.5176 3.01148 22.6489 3.01148H15.419V2.39926C15.419 1.07626 14.3424 0 13.0194 0C11.6964 0 10.6198 1.07626 10.6198 2.39926V3.01148H3.38989C1.52076 3.01148 0 4.53261 0 6.40137V35.2283C0 37.0975 1.5204 38.6182 3.38989 38.6182H12.5075V40.4881C12.5075 40.7708 12.7371 41 13.0194 41H13.0193ZM11.6431 2.39924C11.6431 1.64066 12.2604 1.02342 13.0193 1.02342C13.7783 1.02342 14.3955 1.64063 14.3955 2.39924V3.01146H11.6432L11.6431 2.39924ZM3.38984 37.5949C2.08548 37.5949 1.02338 36.5337 1.02338 35.2285V6.40152C1.02338 5.09643 2.08465 4.03506 3.38984 4.03506H22.6495C23.9546 4.03506 25.016 5.09633 25.016 6.40152V35.2285C25.016 36.5336 23.9547 37.5949 22.6495 37.5949H13.5316V35.6779H18.8938C19.8719 35.6779 20.748 35.0957 21.1257 34.194L22.1066 31.855C22.6728 30.5046 22.9602 29.0767 22.9612 27.6116L22.9698 8.48623C22.9698 7.80404 22.7046 7.16322 22.223 6.68134C21.7414 6.19942 21.1003 5.93383 20.4185 5.93383L5.62209 5.93311C4.94026 5.93311 4.29981 6.1987 3.81757 6.68063C3.33565 7.16255 3.07041 7.80331 3.07076 8.48551L3.07933 27.6109C3.07969 29.0759 3.36741 30.5038 3.93394 31.8543L4.91489 34.1933C5.29292 35.095 6.16935 35.6772 7.14673 35.6772H12.5089V37.5942L3.38984 37.5949ZM13.0192 32.176C12.7369 32.176 12.5073 32.4052 12.5073 32.6879V34.6545H7.14586C6.58183 34.6545 6.07636 34.3183 5.85822 33.7985L4.87728 31.4596C4.54101 30.6581 4.32468 29.8246 4.20688 28.9728H5.76831C6.05067 28.9728 6.28022 28.7437 6.28022 28.4609C6.28022 28.1786 6.05104 27.949 5.76831 27.949H4.11832C4.1144 27.8358 4.10155 27.7245 4.10155 27.6106L4.10048 25.2621H5.76791C6.05028 25.2621 6.27982 25.0329 6.27982 24.7501C6.27982 24.4678 6.05065 24.2382 5.76791 24.2382H4.10011L4.09904 21.5517H5.76831C6.05067 21.5517 6.28022 21.3225 6.28022 21.0397C6.28022 20.7574 6.05104 20.5278 5.76831 20.5278H4.0984L4.09733 17.8413H5.76833C6.0507 17.8413 6.28024 17.6121 6.28024 17.3293C6.28024 17.047 6.05106 16.8174 5.76833 16.8174L4.09733 16.8185L4.09626 14.1319H21.9431L21.9371 27.6114C21.9367 28.9405 21.6754 30.2349 21.1617 31.46L20.1808 33.7989C19.9626 34.3194 19.4572 34.655 18.8931 34.655L13.5309 34.6546V32.688C13.5309 32.4053 13.3021 32.1761 13.019 32.1761L13.0192 32.176ZM4.0937 8.48495C4.0937 8.07656 4.2522 7.69281 4.54099 7.40403C4.82979 7.11523 5.21354 6.95638 5.62191 6.95638H20.4174C20.8258 6.95638 21.2095 7.11559 21.4983 7.40403C21.7871 7.69283 21.946 8.07658 21.9456 8.48495L21.9435 13.1078H4.09567L4.0946 10.4212H5.76916C6.05153 10.4212 6.28107 10.1921 6.28107 9.90933C6.28107 9.62697 6.05189 9.39742 5.76916 9.39742H4.09423L4.0937 8.48495Z" fill="#CA0200"/>
<path d="M12.9987 28C12.7234 28 12.4881 27.8856 12.2929 27.6569C12.0976 27.4281 12 27.1531 12 26.8319C12 26.5106 12.098 26.2361 12.2941 26.0083C12.4902 25.7806 12.7259 25.6667 13.0013 25.6667C13.2766 25.6667 13.5119 25.7811 13.7071 26.0098C13.9024 26.2386 14 26.5136 14 26.8348C14 27.1561 13.902 27.4306 13.7059 27.6583C13.5098 27.8861 13.2741 28 12.9987 28ZM12 24V16H14V24H12Z" fill="#CA0200"/>
</svg>
