<svg width="24" height="26" viewBox="0 0 24 26" fill="none" xmlns="http://www.w3.org/2000/svg">
<path d="M0 26V22.4026H24V26H0ZM2.46 19.2511V15.297L13.65 4.20741L17.64 8.16159L6.45 19.2511H2.46ZM4.26 17.4673H5.61L15.06 8.10213L13.71 6.76424L4.26 16.1294V17.4673ZM18.96 6.85344L14.97 2.89926L17.49 0.401877C17.71 0.144211 17.96 0.0104228 18.24 0.000512598C18.52 -0.00939763 18.8 0.12439 19.08 0.401877L21.42 2.72087C21.68 2.97854 21.81 3.25107 21.81 3.53846C21.81 3.82586 21.7 4.09839 21.48 4.35606L18.96 6.85344Z" fill="white"/>
</svg>
