<svg width="26" height="26" viewBox="0 0 26 26" fill="none" xmlns="http://www.w3.org/2000/svg">
<path d="M15.0475 17.55C15.4071 17.55 15.719 17.4178 15.9834 17.1534C16.2478 16.889 16.38 16.5771 16.38 16.2175C16.38 15.8579 16.2478 15.546 15.9834 15.2816C15.719 15.0172 15.4071 14.885 15.0475 14.885C14.6879 14.885 14.376 15.0172 14.1116 15.2816C13.8472 15.546 13.715 15.8579 13.715 16.2175C13.715 16.5771 13.8472 16.889 14.1116 17.1534C14.376 17.4178 14.6879 17.55 15.0475 17.55ZM14.235 13.455H15.7625C15.8058 12.8267 15.8979 12.3608 16.0387 12.0575C16.1796 11.7542 16.5317 11.3317 17.095 10.79C17.68 10.2267 18.0862 9.73489 18.3137 9.31466C18.5413 8.89444 18.655 8.40038 18.655 7.8325C18.655 6.83839 18.3137 6.02653 17.6312 5.39692C16.9487 4.76731 16.055 4.4525 14.95 4.4525C14.1267 4.4525 13.39 4.67458 12.74 5.11875C12.09 5.56292 11.6133 6.18583 11.31 6.9875L12.7725 7.605C13.0108 7.06333 13.3087 6.65167 13.6662 6.37C14.0237 6.08833 14.4517 5.9475 14.95 5.9475C15.5952 5.9475 16.1194 6.13167 16.5226 6.5C16.9259 6.86833 17.1275 7.33417 17.1275 7.8975C17.1275 8.33083 17.03 8.71 16.835 9.035C16.64 9.36 16.2933 9.70667 15.795 10.075C15.1017 10.7033 14.6683 11.2071 14.495 11.5862C14.3217 11.9654 14.235 12.5883 14.235 13.455ZM5.85 22.1C5.33 22.1 4.875 21.905 4.485 21.515C4.095 21.125 3.9 20.67 3.9 20.15V1.95C3.9 1.43 4.095 0.975 4.485 0.585C4.875 0.195 5.33 0 5.85 0H24.05C24.57 0 25.025 0.195 25.415 0.585C25.805 0.975 26 1.43 26 1.95V20.15C26 20.67 25.805 21.125 25.415 21.515C25.025 21.905 24.57 22.1 24.05 22.1H5.85ZM5.85 20.15H24.05V1.95H5.85V20.15ZM1.95 26C1.43 26 0.975 25.805 0.585 25.415C0.195 25.025 0 24.57 0 24.05V3.9H1.95V24.05H22.1V26H1.95Z" fill="#CA0200"/>
</svg>
