<svg width="36" height="36" viewBox="0 0 36 36" fill="none" xmlns="http://www.w3.org/2000/svg">
<path d="M13.6912 0.00855123C13.3788 0.0447026 13.0881 0.185602 12.8665 0.40869C10.057 3.21834 6.89716 6.73674 4.39604 10.4932C1.89524 14.2499 0 18.2494 0 22.1542C0 29.7828 6.21898 36 13.8475 36C16.4416 36 18.8763 35.2788 20.955 34.0317C21.6959 34.8138 22.7402 35.3051 23.8909 35.3051H24.5641C26.7912 35.3051 28.6329 33.466 28.6329 31.2389V27.9377H31.934C34.161 27.9377 36 26.0958 36 23.8687V23.2062C36 20.979 34.161 19.1399 31.934 19.1399H28.6329V15.8388C28.6329 13.6116 26.7912 11.7725 24.5641 11.7725H24.1155C21.5158 7.53969 17.9542 3.53498 14.8287 0.408927C14.5306 0.10859 14.1113 -0.0387982 13.6904 0.0087887L13.6912 0.00855123ZM13.837 3.55574C16.4503 6.25718 19.278 9.35603 21.396 12.6397C20.4478 13.3874 19.8359 14.5489 19.8359 15.838V19.1392H16.5241C14.297 19.1392 12.4688 20.9783 12.4688 23.2054V23.8679C12.4688 26.0951 14.297 27.9369 16.5241 27.9369H19.8359C19.8359 27.9369 19.8412 31.8409 19.8412 31.4569C18.1134 32.5742 16.0637 33.2305 13.8475 33.2305C7.71535 33.2305 2.77078 28.2861 2.77078 22.1532C2.77078 19.1774 4.34931 15.5576 6.6935 12.0363C8.75128 8.94549 11.3858 6.0883 13.8363 3.55511L13.837 3.55574ZM23.891 14.5404H24.5643C25.3055 14.5404 25.8619 15.0969 25.8619 15.8382V20.5181C25.8591 21.2837 26.478 21.906 27.2433 21.9079H31.9339C32.6751 21.9079 33.2315 22.4644 33.2315 23.2056V23.8681C33.2315 24.6093 32.6751 25.1658 31.9339 25.1658L27.2437 25.1655C26.4814 25.167 25.8638 25.7847 25.8622 26.547V31.2377C25.8622 31.979 25.3058 32.5354 24.5646 32.5354H23.8913C23.1501 32.5354 22.6044 31.9789 22.6044 31.2377V26.547C22.6029 25.7813 21.9803 25.1624 21.2147 25.1655H16.5242C15.7829 25.1655 15.2373 24.609 15.2373 23.8678V23.2053C15.2373 22.464 15.7829 21.9076 16.5242 21.9076H21.2147C21.9834 21.9103 22.6072 21.2865 22.6044 20.5178V15.8379C22.6044 15.0966 23.1501 14.5401 23.8913 14.5401L23.891 14.5404Z" fill="#CA0200"/>
</svg>
