<svg width="37" height="37" viewBox="0 0 37 37" fill="none" xmlns="http://www.w3.org/2000/svg">
<path d="M13.4545 31.9545C9.69849 31.9545 6.51705 30.6511 3.91023 28.0443C1.30341 25.4375 0 22.2561 0 18.5C0 14.7439 1.30341 11.5625 3.91023 8.95568C6.51705 6.34886 9.69849 5.04545 13.4545 5.04545C17.2106 5.04545 20.392 6.34886 22.9989 8.95568C25.6057 11.5625 26.9091 14.7439 26.9091 18.5C26.9091 22.2561 25.6057 25.4375 22.9989 28.0443C20.392 30.6511 17.2106 31.9545 13.4545 31.9545ZM13.4447 29.4318C16.4785 29.4318 19.0606 28.37 21.1909 26.2462C23.3212 24.1226 24.3864 21.5438 24.3864 18.5099C24.3864 15.476 23.3245 12.8939 21.2008 10.7636C19.0771 8.63333 16.4983 7.56818 13.4644 7.56818C10.4306 7.56818 7.84848 8.63004 5.71818 10.7538C3.58788 12.8774 2.52273 15.4562 2.52273 18.4901C2.52273 21.524 3.58459 24.1061 5.7083 26.2364C7.83199 28.3667 10.4108 29.4318 13.4447 29.4318ZM12.1932 23.9659H14.7159V15.5568H18.0795V13.875H8.82955V15.5568H12.1932V23.9659ZM31.2818 11.4364L29.5159 7.48409L25.5636 5.71818L29.5159 3.95227L31.2818 0L33.0477 3.95227L37 5.71818L33.0477 7.48409L31.2818 11.4364ZM31.2818 37L29.5159 33.0477L25.5636 31.2818L29.5159 29.5159L31.2818 25.5636L33.0477 29.5159L37 31.2818L33.0477 33.0477L31.2818 37Z" fill="#CA0200"/>
</svg>
