<svg width="38" height="28" viewBox="0 0 38 28" fill="none" xmlns="http://www.w3.org/2000/svg">
<path d="M7.95055 27.5932C6.53655 27.5932 5.33295 27.0978 4.33977 26.107C3.34659 25.1162 2.85 23.9131 2.85 22.4977H0V2.59091C0 1.9 0.259091 1.29545 0.777273 0.777273C1.29545 0.259091 1.9 0 2.59091 0H27.5932V7.21136H32.1273L38 15.0273V22.4977H34.9341C34.9341 23.9131 34.4392 25.1162 33.4494 26.107C32.4596 27.0978 31.2577 27.5932 29.8437 27.5932C28.4297 27.5932 27.2261 27.0978 26.233 26.107C25.2398 25.1162 24.7432 23.9131 24.7432 22.4977H13.0409C13.0409 23.9083 12.546 25.1102 11.5562 26.1034C10.5664 27.0966 9.36452 27.5932 7.95055 27.5932ZM7.94545 25.0023C8.63636 25.0023 9.22651 24.7576 9.71591 24.2682C10.2053 23.7788 10.45 23.1886 10.45 22.4977C10.45 21.8068 10.2053 21.2167 9.71591 20.7273C9.22651 20.2379 8.63636 19.9932 7.94545 19.9932C7.25455 19.9932 6.66439 20.2379 6.175 20.7273C5.68561 21.2167 5.44091 21.8068 5.44091 22.4977C5.44091 23.1886 5.68561 23.7788 6.175 24.2682C6.66439 24.7576 7.25455 25.0023 7.94545 25.0023ZM2.59091 19.9068H3.54091C4.0303 19.1295 4.64983 18.5106 5.3995 18.05C6.14916 17.5894 6.98401 17.3591 7.90404 17.3591C8.82407 17.3591 9.66553 17.5966 10.4284 18.0716C11.1913 18.5466 11.8174 19.1583 12.3068 19.9068H25.0023V2.59091H2.59091V19.9068ZM29.8386 25.0023C30.5295 25.0023 31.1197 24.7576 31.6091 24.2682C32.0985 23.7788 32.3432 23.1886 32.3432 22.4977C32.3432 21.8068 32.0985 21.2167 31.6091 20.7273C31.1197 20.2379 30.5295 19.9932 29.8386 19.9932C29.1477 19.9932 28.5576 20.2379 28.0682 20.7273C27.5788 21.2167 27.3341 21.8068 27.3341 22.4977C27.3341 23.1886 27.5788 23.7788 28.0682 24.2682C28.5576 24.7576 29.1477 25.0023 29.8386 25.0023ZM27.5932 16.1932H35.625L30.8318 9.80227H27.5932V16.1932Z" fill="#CA0200"/>
<path d="M12.0911 16.4091H15.5457V12.0909H19.8639V8.63637H15.5457V4.31818H12.0911V8.63637H7.77295V12.0909H12.0911V16.4091Z" fill="#CA0200"/>
</svg>
