<svg width="29" height="29" viewBox="0 0 29 29" fill="none" xmlns="http://www.w3.org/2000/svg">
<path d="M14.5 19.7925L19.7925 14.5L14.5 9.2075L12.9775 10.73L15.66 13.4125H9.0625V15.5875H15.66L12.9775 18.27L14.5 19.7925ZM14.5 29C12.5183 29 10.6454 28.6194 8.88125 27.8581C7.11708 27.0969 5.57646 26.0577 4.25938 24.7406C2.94229 23.4235 1.90312 21.8829 1.14187 20.1187C0.380625 18.3546 0 16.4817 0 14.5C0 12.4942 0.380625 10.6092 1.14187 8.845C1.90312 7.08083 2.94229 5.54625 4.25938 4.24125C5.57646 2.93625 7.11708 1.90312 8.88125 1.14187C10.6454 0.380625 12.5183 0 14.5 0C16.5058 0 18.3908 0.380625 20.155 1.14187C21.9192 1.90312 23.4537 2.93625 24.7587 4.24125C26.0637 5.54625 27.0969 7.08083 27.8581 8.845C28.6194 10.6092 29 12.4942 29 14.5C29 16.4817 28.6194 18.3546 27.8581 20.1187C27.0969 21.8829 26.0637 23.4235 24.7587 24.7406C23.4537 26.0577 21.9192 27.0969 20.155 27.8581C18.3908 28.6194 16.5058 29 14.5 29ZM14.5 26.825C17.9317 26.825 20.8438 25.6227 23.2362 23.2181C25.6287 20.8135 26.825 17.9075 26.825 14.5C26.825 11.0683 25.6287 8.15625 23.2362 5.76375C20.8438 3.37125 17.9317 2.175 14.5 2.175C11.0925 2.175 8.18646 3.37125 5.78187 5.76375C3.37729 8.15625 2.175 11.0683 2.175 14.5C2.175 17.9075 3.37729 20.8135 5.78187 23.2181C8.18646 25.6227 11.0925 26.825 14.5 26.825Z" fill="#CA0200"/>
</svg>
