<svg width="33" height="33" viewBox="0 0 33 33" fill="none" xmlns="http://www.w3.org/2000/svg">
<path d="M13.124 33H2.53197C1.85678 33 1.26598 32.7468 0.759591 32.2404C0.253197 31.734 0 31.1432 0 30.468V5.90793C0 5.23274 0.218031 4.64194 0.654092 4.13555C1.09015 3.62916 1.46292 3.37596 1.77238 3.37596H10.2967C10.4936 2.3913 10.9789 1.58248 11.7526 0.949489C12.5262 0.316496 13.4194 0 14.4322 0C15.445 0 16.3382 0.316496 17.1119 0.949489C17.8855 1.58248 18.3708 2.3913 18.5678 3.37596H27.0921C27.7673 3.37596 28.3581 3.62916 28.8645 4.13555C29.3708 4.64194 29.624 5.23274 29.624 5.90793V14.4744H27.0921V5.90793H22.6189V11.3939H7.00512V5.90793H2.53197V30.468H13.124V33ZM21.0997 31.945L14.3478 25.1931L16.1624 23.3785L21.0997 28.3159L31.1854 18.2302L33 20.0448L21.0997 31.945ZM15.1918 5.73913C15.6701 5.73913 16.071 5.57737 16.3945 5.25384C16.718 4.93031 16.8798 4.52941 16.8798 4.05115C16.8798 3.57289 16.718 3.17199 16.3945 2.84847C16.071 2.52494 15.6701 2.36317 15.1918 2.36317C14.7136 2.36317 14.3127 2.52494 13.9891 2.84847C13.6656 3.17199 13.5038 3.57289 13.5038 4.05115C13.5038 4.52941 13.6656 4.93031 13.9891 5.25384C14.3127 5.57737 14.7136 5.73913 15.1918 5.73913Z" fill="#CA0200"/>
</svg>
