<svg width="23" height="24" viewBox="0 0 23 24" fill="none" xmlns="http://www.w3.org/2000/svg">
<path d="M0 23.1032L1.62477 17.171C0.621007 15.4307 0.0937632 13.4566 0.0961881 11.4476C0.098834 5.13532 5.23571 0 11.5482 0C14.6114 0.00155644 17.4866 1.19363 19.649 3.35755C21.8113 5.52148 23.0011 8.39778 23 11.4568C22.9972 17.7686 17.8595 22.9049 11.548 22.9049H11.543C9.62659 22.9041 7.74345 22.4233 6.07074 21.5113L0 23.1032Z" fill="#CA0200"/>
<path d="M11.5518 1.93388C6.30145 1.93388 2.03166 6.20211 2.0298 11.4484C2.02721 13.2399 2.53169 14.9955 3.48491 16.5123L3.71137 16.8723L2.74965 20.3833L6.35219 19.4387L6.70005 19.6448C8.16108 20.5119 9.83628 20.9704 11.5446 20.9713H11.5482C16.7945 20.9713 21.0643 16.7026 21.0663 11.456C21.0703 10.2055 20.8261 8.96665 20.3481 7.81113C19.87 6.65562 19.1674 5.60641 18.2811 4.72427C17.3996 3.83729 16.351 3.13397 15.1959 2.65499C14.0409 2.17602 12.8022 1.93092 11.5518 1.93388Z" fill="#E8E8E8"/>
<path fill-rule="evenodd" clip-rule="evenodd" d="M8.68593 6.66172C8.47145 6.1853 8.24577 6.17565 8.04203 6.1674L7.49354 6.16071C7.30272 6.16071 6.99268 6.2323 6.73057 6.51869C6.46847 6.80507 5.729 7.49722 5.729 8.90502C5.729 10.3128 6.75439 11.6732 6.89727 11.8643C7.04015 12.0554 8.87675 15.0365 11.7853 16.1834C14.2023 17.1366 14.6941 16.947 15.2189 16.8994C15.7438 16.8517 16.9119 16.2072 17.1502 15.539C17.3885 14.8709 17.3886 14.2984 17.3172 14.1787C17.2457 14.059 17.0549 13.9879 16.7685 13.8447C16.4821 13.7015 15.0756 13.0094 14.8133 12.9138C14.5511 12.8182 14.3604 12.7708 14.1694 13.0571C13.9785 13.3435 13.4307 13.9877 13.2637 14.1787C13.0967 14.3697 12.93 14.3937 12.6436 14.2506C12.3573 14.1076 11.4359 13.8053 10.3426 12.8305C9.49201 12.0721 8.91784 11.1354 8.75068 10.8492C8.58352 10.5629 8.73294 10.4079 8.87644 10.2654C9.00485 10.1371 9.16251 9.93118 9.30586 9.76418C9.44921 9.59717 9.49637 9.47779 9.59162 9.28713C9.68688 9.09646 9.63941 8.92899 9.56781 8.78595C9.49621 8.64292 8.94025 7.22765 8.68593 6.66172Z" fill="#CA0200"/>
</svg>
