<svg width="20" height="27" viewBox="0 0 20 27" fill="none" xmlns="http://www.w3.org/2000/svg">
<path d="M1.875 27C1.35938 27 0.917969 26.8112 0.550781 26.4335C0.183594 26.0558 0 25.6018 0 25.0714V11.1214C0 10.5911 0.183594 10.1371 0.550781 9.75938C0.917969 9.3817 1.35938 9.19286 1.875 9.19286H4.0625V6.10714C4.0625 4.4175 4.64173 2.97723 5.80019 1.78634C6.95865 0.595446 8.35969 0 10.0033 0C11.6469 0 13.0469 0.595446 14.2031 1.78634C15.3594 2.97723 15.9375 4.4175 15.9375 6.10714V9.19286H18.125C18.6406 9.19286 19.082 9.3817 19.4492 9.75938C19.8164 10.1371 20 10.5911 20 11.1214V25.0714C20 25.6018 19.8164 26.0558 19.4492 26.4335C19.082 26.8112 18.6406 27 18.125 27H1.875ZM1.875 25.0714H18.125V11.1214H1.875V25.0714ZM10.0052 20.5714C10.6684 20.5714 11.2344 20.3354 11.7031 19.8633C12.1719 19.3912 12.4062 18.8237 12.4062 18.1607C12.4062 17.5179 12.1701 16.9339 11.6979 16.4089C11.2256 15.8839 10.6579 15.6214 9.99475 15.6214C9.33158 15.6214 8.76562 15.8839 8.29688 16.4089C7.82812 16.9339 7.59375 17.5232 7.59375 18.1768C7.59375 18.8304 7.82987 19.3929 8.30212 19.8643C8.77437 20.3357 9.34208 20.5714 10.0052 20.5714ZM5.9375 9.19286H14.0625V6.10714C14.0625 4.94642 13.6679 3.95982 12.8787 3.14733C12.0895 2.33483 11.1311 1.92857 10.0037 1.92857C8.87623 1.92857 7.91667 2.33483 7.125 3.14733C6.33333 3.95982 5.9375 4.94642 5.9375 6.10714V9.19286Z" fill="#CA0200"/>
</svg>
